/* XPM */
static char * launch_xpm[] = {
"16 16 119 2",
"  	c None",
". 	c #23262B",
"+ 	c #919598",
"@ 	c #9FA1A6",
"# 	c #2C2D32",
"$ 	c #16181D",
"% 	c #B0B1B2",
"& 	c #B9BABC",
"* 	c #212529",
"= 	c #836D4C",
"- 	c #162132",
"; 	c #595C60",
"> 	c #595A5A",
", 	c #616063",
"' 	c #696C70",
") 	c #2C3541",
"! 	c #816A46",
"~ 	c #8D6F40",
"{ 	c #F3BE62",
"] 	c #837561",
"^ 	c #52595E",
"/ 	c #21252C",
"( 	c #16181A",
"_ 	c #181A1B",
": 	c #272C32",
"< 	c #515557",
"[ 	c #8B816A",
"} 	c #EEB75F",
"| 	c #654C25",
"1 	c #F0C06C",
"2 	c #FEFCA3",
"3 	c #F5B14A",
"4 	c #967750",
"5 	c #000000",
"6 	c #5A5E63",
"7 	c #61636A",
"8 	c #876A55",
"9 	c #E5AA53",
"0 	c #FEFE97",
"a 	c #FACB76",
"b 	c #0E0A03",
"c 	c #5D4923",
"d 	c #FEFE96",
"e 	c #FEFE9E",
"f 	c #BD8D44",
"g 	c #665E55",
"h 	c #261F18",
"i 	c #62666B",
"j 	c #55595E",
"k 	c #1D0E00",
"l 	c #4D5491",
"m 	c #765F73",
"n 	c #FEF67C",
"o 	c #FEFE99",
"p 	c #6E5223",
"q 	c #351E11",
"r 	c #C46E27",
"s 	c #FECA54",
"t 	c #9A7C50",
"u 	c #001634",
"v 	c #525255",
"w 	c #765626",
"x 	c #0F1B2C",
"y 	c #000A16",
"z 	c #512A0A",
"A 	c #8D8E93",
"B 	c #1F3159",
"C 	c #8F6537",
"D 	c #FEC14A",
"E 	c #D68539",
"F 	c #472F1B",
"G 	c #130003",
"H 	c #00000C",
"I 	c #000C1E",
"J 	c #494743",
"K 	c #C6964B",
"L 	c #AC7631",
"M 	c #3C3C38",
"N 	c #141F27",
"O 	c #14070A",
"P 	c #41312D",
"Q 	c #2A2F34",
"R 	c #050C16",
"S 	c #2F3237",
"T 	c #CCA559",
"U 	c #D1A759",
"V 	c #2C2C2A",
"W 	c #000A14",
"X 	c #111D1F",
"Y 	c #00000F",
"Z 	c #957D58",
"` 	c #705D3E",
" .	c #746043",
"..	c #876841",
"+.	c #001625",
"@.	c #624117",
"#.	c #D79C37",
"$.	c #091623",
"%.	c #091726",
"&.	c #D18521",
"*.	c #80480E",
"=.	c #99703B",
"-.	c #B37F26",
";.	c #000013",
">.	c #00071A",
",.	c #B06D16",
"'.	c #9D6836",
").	c #B97E22",
"!.	c #937749",
"~.	c #91774A",
"{.	c #AB6C16",
"].	c #7A4F0A",
"^.	c #917144",
"/.	c #947449",
"(.	c #724505",
"_.	c #180A00",
":.	c #262629",
"<.	c #363231",
"[.	c #291703",
"                                ",
"            . + @ #             ",
"            $ % & *             ",
"        = - ; > , ' ) !         ",
"    ~ { ] ^ / ( _ : < [ } |     ",
"    1 2 3 4 5 6 7 5 8 9 0 a b   ",
"  c d e f g h i j k l m n o p   ",
"q r s t u v w x y z A B C D E F ",
"    G H I J K     L M N 5 O P   ",
"      Q R S T     U V W X       ",
"        Y Z `      ...+.        ",
"        @.#.$.    %.&.*.        ",
"        =.-.;.    >.,.'.        ",
"          ).!.    ~.{.          ",
"          ].^.    /.(.          ",
"          _.:.    <.[.          "};
