/* XPM */
static char * mail_send_xpm[] = {
"16 16 151 2",
"  	c None",
". 	c #3E3E3E",
"+ 	c #333333",
"@ 	c #343434",
"# 	c #353535",
"$ 	c #363636",
"% 	c #373737",
"& 	c #393939",
"* 	c #383838",
"= 	c #4B4B4B",
"- 	c #373738",
"; 	c #FFFFFF",
"> 	c #242426",
", 	c #F2F2F4",
"' 	c #CFCED0",
") 	c #DFE0E2",
"! 	c #EEEFF0",
"~ 	c #F0F0F3",
"{ 	c #EFF0F1",
"] 	c #F0F1F2",
"^ 	c #EFF0F2",
"/ 	c #E0E0E1",
"( 	c #C5C5C8",
"_ 	c #F5F5F7",
": 	c #252525",
"< 	c #B7B7B8",
"[ 	c #C7C7C9",
"} 	c #E7E8E9",
"| 	c #EAEBEC",
"1 	c #EBEBEC",
"2 	c #ECECEC",
"3 	c #E8E9EA",
"4 	c #CECED1",
"5 	c #B7B7BB",
"6 	c #DCDDDF",
"7 	c #272727",
"8 	c #FEFEFF",
"9 	c #F2EFF2",
"0 	c #E8E8EA",
"a 	c #C2C2C4",
"b 	c #B8B8BC",
"c 	c #D8D9DA",
"d 	c #E1E3E4",
"e 	c #E3E4E5",
"f 	c #DBDBDE",
"g 	c #BABFC1",
"h 	c #BDBFC1",
"i 	c #E1E3E6",
"j 	c #F1F0F1",
"k 	c #262627",
"l 	c #FAFAFD",
"m 	c #ECECED",
"n 	c #F0F0F1",
"o 	c #E4E4E5",
"p 	c #B1B3B3",
"q 	c #A0A2A3",
"r 	c #B7B8BB",
"s 	c #BBBEBF",
"t 	c #9FA2A6",
"u 	c #A3A8A8",
"v 	c #E3E6E7",
"w 	c #EDECEE",
"x 	c #EDECED",
"y 	c #FCFCFD",
"z 	c #252626",
"A 	c #F6F6F7",
"B 	c #EAEAEC",
"C 	c #E0E1E1",
"D 	c #CBCCCD",
"E 	c #C8C8C9",
"F 	c #D0D0D1",
"G 	c #B2AFB2",
"H 	c #BDBABF",
"I 	c #D1D3D7",
"J 	c #D2CFC7",
"K 	c #C8C7C4",
"L 	c #E2E2E4",
"M 	c #ECEBEC",
"N 	c #F5F5F6",
"O 	c #282829",
"P 	c #EEEEF1",
"Q 	c #C7C8CA",
"R 	c #C7C8C9",
"S 	c #E5E7E8",
"T 	c #EBECEF",
"U 	c #F3F0EB",
"V 	c #F0E9E6",
"W 	c #4180CB",
"X 	c #537FB8",
"Y 	c #D3C9C2",
"Z 	c #DDDAD6",
"` 	c #EDEEEF",
" .	c #2A2A2A",
"..	c #DDDEE0",
"+.	c #EEEEF0",
"@.	c #FFFDFD",
"#.	c #FFFFFA",
"$.	c #DEDEE3",
"%.	c #3784D3",
"&.	c #0A7AEF",
"*.	c #0967D0",
"=.	c #5382C0",
"-.	c #CAC6C2",
";.	c #E4E1DF",
">.	c #7A7B7C",
",.	c #8A8A8A",
"'.	c #8B8B8C",
").	c #8E8E8E",
"!.	c #939291",
"~.	c #A1A4A2",
"{.	c #898EA4",
"].	c #2470C5",
"^.	c #1D96FA",
"/.	c #23A0FF",
"(.	c #1A92FD",
"_.	c #0D6FDB",
":.	c #457DC1",
"<.	c #969FAA",
"[.	c #0E55B0",
"}.	c #2AB6FF",
"|.	c #38B7FF",
"1.	c #27A5FF",
"2.	c #1B97FE",
"3.	c #24A3FF",
"4.	c #1282E9",
"5.	c #1354B1",
"6.	c #1747A5",
"7.	c #0C6ECD",
"8.	c #1185D8",
"9.	c #219BE8",
"0.	c #26A8FF",
"a.	c #1F95FA",
"b.	c #1279D9",
"c.	c #0E7BD0",
"d.	c #0E6AD1",
"e.	c #3B8BC8",
"f.	c #2CA9FF",
"g.	c #2898F8",
"h.	c #3872AE",
"i.	c #72A4D8",
"j.	c #4DB3FD",
"k.	c #4DA6F2",
"l.	c #9CB6D6",
"m.	c #94B7DD",
"n.	c #88CBFC",
"o.	c #8BC3F0",
"p.	c #B8CDE5",
"q.	c #BCCEDB",
"r.	c #BEDBF0",
"s.	c #C3DCF0",
"t.	c #D3DDE5",
"  . + + @ @ # # $ % % & % * =   ",
"- ; ; ; ; ; ; ; ; ; ; ; ; ; ;   ",
"> , ' ) ! ~ { { ] ] ~ ^ / ( _   ",
": ; / < [ } | 1 1 2 3 4 5 6 ;   ",
"7 8 9 0 a b c d e f g h i j 8   ",
"k l m n o p q r s t u v w x y   ",
"z A B C D E F G H I J K L M N   ",
"O P Q R S P T 1 U V W X Y Z `   ",
" ...+.; ; ; @.#.$.%.&.*.=.-.;.  ",
"  >.,.'.).!.~.{.].^./.(._.:.<.  ",
"              [.}.|.1.2.3.4.5.  ",
"            6.7.8.9.0.a.b.c.d.  ",
"                  e.f.g.h.      ",
"                  i.j.k.l.      ",
"                  m.n.o.p.      ",
"                  q.r.s.t.      "};
