/* XPM */
static char * mail_delete_xpm[] = {
"16 16 203 2",
"  	c None",
". 	c #641C1C",
"+ 	c #792E2E",
"@ 	c #7B2E2F",
"# 	c #7B2F30",
"$ 	c #7A2E2E",
"% 	c #621919",
"& 	c #611818",
"* 	c #F7B9B9",
"= 	c #FFC0C5",
"- 	c #FFC0C8",
"; 	c #FFC2CB",
"> 	c #FFC2CA",
", 	c #FFC2C5",
"' 	c #FFC4C4",
") 	c #F5B9B9",
"! 	c #5F1515",
"~ 	c #5D1313",
"{ 	c #F4AAAA",
"] 	c #FF7676",
"^ 	c #FF7374",
"/ 	c #FF7A7E",
"( 	c #FF7C81",
"_ 	c #FF7E80",
": 	c #FF7F7F",
"< 	c #FF7A7A",
"[ 	c #FF8080",
"} 	c #F1AAAA",
"| 	c #5B1111",
"1 	c #570E0E",
"2 	c #E99B9B",
"3 	c #FF5C5C",
"4 	c #E65050",
"5 	c #CD5B5B",
"6 	c #FA5A5A",
"7 	c #FF6766",
"8 	c #FF6868",
"9 	c #F95D5D",
"0 	c #CC5F5F",
"a 	c #E85858",
"b 	c #FF6A6A",
"c 	c #E59D9D",
"d 	c #560C0C",
"e 	c #520B0B",
"f 	c #D68C8C",
"g 	c #E64545",
"h 	c #D53D3D",
"i 	c #D3A2A2",
"j 	c #EAE8E8",
"k 	c #D06868",
"l 	c #F54141",
"m 	c #F24141",
"n 	c #CF7171",
"o 	c #EAEAEA",
"p 	c #D29C9C",
"q 	c #D64848",
"r 	c #E55555",
"s 	c #D48F8F",
"t 	c #510909",
"u 	c #590E0E",
"v 	c #BD3535",
"w 	c #BF2727",
"x 	c #CF7070",
"y 	c #FFFFFF",
"z 	c #F1EFEF",
"A 	c #C85959",
"B 	c #CA6363",
"C 	c #F4F4F4",
"D 	c #D06C6C",
"E 	c #C83333",
"F 	c #C93E3E",
"G 	c #570C0C",
"H 	c #540808",
"I 	c #8B2626",
"J 	c #952222",
"K 	c #A92626",
"L 	c #DEA4A4",
"M 	c #FDFCFC",
"N 	c #FDFDFD",
"O 	c #E39B9B",
"P 	c #BE2727",
"Q 	c #B02626",
"R 	c #AC2626",
"S 	c #550707",
"T 	c #4F0707",
"U 	c #5A1D1D",
"V 	c #6E1B1B",
"W 	c #871717",
"X 	c #9E1414",
"Y 	c #D59393",
"Z 	c #F2F4F4",
"` 	c #F4F6F6",
" .	c #F1F3F3",
"..	c #D88B8B",
"+.	c #B21414",
"@.	c #A51919",
"#.	c #921B1B",
"$.	c #841C1C",
"%.	c #510606",
"&.	c #4D0505",
"*.	c #440606",
"=.	c #510505",
"-.	c #680606",
";.	c #790000",
">.	c #A24A4A",
",.	c #E0E0E0",
"'.	c #E2E3E3",
").	c #E2E4E4",
"!.	c #DEDCDC",
"~.	c #A24242",
"{.	c #8C0000",
"].	c #850606",
"^.	c #6D0505",
"/.	c #5E0606",
"(.	c #4F0505",
"_.	c #4F0606",
":.	c #6A0101",
"<.	c #710000",
"[.	c #750000",
"}.	c #904444",
"|.	c #D0D0D1",
"1.	c #D4D6D6",
"2.	c #D8DDDE",
"3.	c #D7DDDD",
"4.	c #D4D6D7",
"5.	c #CDCCCC",
"6.	c #913A3B",
"7.	c #7C0000",
"8.	c #760000",
"9.	c #710101",
"0.	c #510A0A",
"a.	c #920606",
"b.	c #8E0000",
"c.	c #A04343",
"d.	c #C3C9C9",
"e.	c #C3C6C7",
"f.	c #CBD3D3",
"g.	c #CD7F7F",
"h.	c #CF8787",
"i.	c #C9D3D3",
"j.	c #C4C7C7",
"k.	c #C1C5C5",
"l.	c #9F3A3A",
"m.	c #910000",
"n.	c #950808",
"o.	c #500909",
"p.	c #520303",
"q.	c #7C1515",
"r.	c #A80C0C",
"s.	c #B93232",
"t.	c #CEB4B4",
"u.	c #BFCFD0",
"v.	c #D78282",
"w.	c #C70707",
"x.	c #C90B0B",
"y.	c #BDD0D0",
"z.	c #D1ADAE",
"A.	c #BF2A2A",
"B.	c #AD0D0D",
"C.	c #791718",
"D.	c #530404",
"E.	c #951D1D",
"F.	c #CE0F0F",
"G.	c #D63636",
"H.	c #E47171",
"I.	c #DE1717",
"J.	c #E11717",
"K.	c #E21616",
"L.	c #E21A1A",
"M.	c #E67474",
"N.	c #DB2F2F",
"O.	c #D50F0F",
"P.	c #931D1D",
"Q.	c #530303",
"R.	c #550505",
"S.	c #A92222",
"T.	c #F01D1D",
"U.	c #EF1818",
"V.	c #F52222",
"W.	c #F82323",
"X.	c #F92424",
"Y.	c #F82121",
"Z.	c #F41616",
"`.	c #F51D1D",
" +	c #A42323",
".+	c #540505",
"++	c #560707",
"@+	c #B12929",
"#+	c #FA2828",
"$+	c #FF2929",
"%+	c #FF2B2B",
"&+	c #FE2A2A",
"*+	c #FA2929",
"=+	c #AA2A2A",
"-+	c #550606",
";+	c #570808",
">+	c #661C1C",
",+	c #6C1C1C",
"'+	c #701C1C",
")+	c #711D1D",
"!+	c #6E1C1C",
"~+	c #691C1C",
"{+	c #570707",
"        . + @ # # $ + %         ",
"      & * = - ; > , ' ) !       ",
"    ~ { ] ^ / ( _ : < [ } |     ",
"  1 2 3 4 5 6 7 8 9 0 a b c d   ",
"e f g h i j k l m n o p q r s t ",
"u v w x y y z A B C y y D E F G ",
"H I J K L y y M N y y O P Q R S ",
"T U V W X Y Z ` `  ...+.@.#.$.%.",
"&.*.=.-.;.>.,.'.).!.~.{.].^./.(.",
"_.:.<.[.}.|.1.2.3.4.5.6.7.8.9._.",
"0.a.b.c.d.e.f.g.h.i.j.k.l.m.n.o.",
"p.q.r.s.t.u.v.w.x...y.z.A.B.C.p.",
"  D.E.F.G.H.I.J.K.L.M.N.O.P.Q.  ",
"    R.S.T.U.V.W.X.Y.Z.`. +.+    ",
"      ++@+#+$+%+%+&+*+=+-+      ",
"        ;+>+,+'+)+!+~+{+        "};
