/* XPM */
static char * mail_get_xpm[] = {
"16 16 145 2",
"  	c None",
". 	c #464646",
"+ 	c #484848",
"@ 	c #494949",
"# 	c #4A4A4A",
"$ 	c #4D4D4D",
"% 	c #FFFFFF",
"& 	c #3D3E3D",
"* 	c #505052",
"= 	c #F6F6F7",
"- 	c #CAC8CD",
"; 	c #D5D7DA",
"> 	c #ECEFF0",
", 	c #F0F0F2",
"' 	c #F0F1F2",
") 	c #F1F1F3",
"! 	c #E4E4E6",
"~ 	c #D3D3D6",
"{ 	c #F8F8F9",
"] 	c #444445",
"^ 	c #505151",
"/ 	c #D7D7D8",
"( 	c #9A9A9E",
"_ 	c #B6B6B9",
": 	c #E1E3E5",
"< 	c #E9EAEB",
"[ 	c #EBEBEC",
"} 	c #ECECEC",
"| 	c #E8E9EB",
"1 	c #CDCDCF",
"2 	c #B0B0B3",
"3 	c #D8D9DD",
"4 	c #454545",
"5 	c #4F4F50",
"6 	c #FEFEFF",
"7 	c #EFEEEF",
"8 	c #DEDEE1",
"9 	c #A1A1A3",
"0 	c #98989A",
"a 	c #CECFD1",
"b 	c #E1E2E3",
"c 	c #E4E5E6",
"d 	c #DADADD",
"e 	c #B6B9B9",
"f 	c #B1B4B7",
"g 	c #DDDDE1",
"h 	c #454546",
"i 	c #4F4F4F",
"j 	c #FBFBFD",
"k 	c #ECECED",
"l 	c #ECECEE",
"m 	c #D9DADA",
"n 	c #848487",
"o 	c #919495",
"p 	c #B9BABB",
"q 	c #C0C1C4",
"r 	c #A2A5A6",
"s 	c #B0B2B2",
"t 	c #E0E2E3",
"u 	c #EBECED",
"v 	c #EDEDEE",
"w 	c #FCFCFD",
"x 	c #434444",
"y 	c #4D4D4E",
"z 	c #E8E8EB",
"A 	c #B2B3B3",
"B 	c #BEBEC0",
"C 	c #D0D1D4",
"D 	c #B2B2B4",
"E 	c #A7A4A9",
"F 	c #ABBBC7",
"G 	c #B2C3D7",
"H 	c #B6CBDC",
"I 	c #CFD9DD",
"J 	c #EBEAEB",
"K 	c #F7F7F9",
"L 	c #424242",
"M 	c #F3F3F5",
"N 	c #D3D3D4",
"O 	c #BFBFC0",
"P 	c #DCDDDE",
"Q 	c #EEEEEF",
"R 	c #EDEDF0",
"S 	c #EAEAEC",
"T 	c #EDEAEB",
"U 	c #A9C5E7",
"V 	c #8AC3F1",
"W 	c #87C6F3",
"X 	c #ACC6DF",
"Y 	c #E8E6E4",
"Z 	c #F2F3F4",
"` 	c #404040",
" .	c #505051",
"..	c #FAFAFB",
"+.	c #FFFDFD",
"@.	c #FFFEFC",
"#.	c #FFFFFD",
"$.	c #8ABBEF",
"%.	c #3CAAFF",
"&.	c #3DAFFF",
"*.	c #91BDF1",
"=.	c #FFFAF7",
"-.	c #FDFDFC",
";.	c #3F3E3F",
">.	c #414141",
",.	c #8C8C8C",
"'.	c #868686",
").	c #868687",
"!.	c #878686",
"~.	c #888A8A",
"{.	c #898A89",
"].	c #4694E2",
"^.	c #008EFD",
"/.	c #079BFF",
"(.	c #4C98DF",
"_.	c #8F8988",
":.	c #979798",
"<.	c #333434",
"[.	c #0056A4",
"}.	c #0054A1",
"|.	c #006FDF",
"1.	c #007FE6",
"2.	c #0091EF",
"3.	c #0076D7",
"4.	c #004492",
"5.	c #0081F0",
"6.	c #008BEE",
"7.	c #007DE6",
"8.	c #0079DC",
"9.	c #008FEE",
"0.	c #04A3FF",
"a.	c #08B3FF",
"b.	c #008CF5",
"c.	c #0085EA",
"d.	c #0085E5",
"e.	c #0079DB",
"f.	c #008FED",
"g.	c #08B5FF",
"h.	c #01A8FF",
"i.	c #007AE2",
"j.	c #007DDF",
"k.	c #009AF4",
"l.	c #0097F9",
"m.	c #0079E1",
"n.	c #0083EA",
"  . + + @ @ # # # # # # # # #   ",
"$ % % % % % % % % % % % % % % & ",
"* = - ; > , ' ' ' ' ) ' ! ~ { ] ",
"^ % / ( _ : < [ [ } | 1 2 3 % 4 ",
"5 6 7 8 9 0 a b c d e f g 7 6 h ",
"i j k l m n o p q r s t u v w x ",
"y { z / A B C D E F G H I J K L ",
"$ M N O P Q R S T U V W X Y Z ` ",
" ...k 6 % % +.@.#.$.%.&.*.=.-.;.",
">.,.'.).'.!.~.{.,.].^./.(._.:.<.",
"              [.}.|.1.2.3.  4.  ",
"              5.6.7.8.9.0.a.b.  ",
"                c.d.e.f.g.h.    ",
"                  i.j.k.l.      ",
"                    m.n.        ",
"                                "};
